max v2;#N vpatcher 464 367 1037 775;#P origin 6 11;#P window setfont "Sans Serif" 12.;#P window linecount 1;#N vpatcher 346 44 578 338;#P origin 0 28;#P window setfont "Sans Serif" 9.;#P window linecount 1;#P newex 54 161 68 196617 prepend send;#P newex 34 106 30 196617 t b s;#P newex 34 133 51 196617 zl reg;#P newex 54 202 47 196617 forward;#P newex 34 85 51 196617 zl slice 1;#P newex 34 51 158 196617 regexp (:/value) @substitute " ";#P inlet 35 31 15 0;#P connect 0 0 1 0;#P connect 1 0 2 0;#P fasten 1 3 2 0 150 77 39 77;#P connect 2 0 5 0;#P connect 5 0 4 0;#P connect 5 1 6 0;#P connect 6 0 3 0;#P fasten 4 0 3 0 39 191 59 191;#P connect 2 1 4 1;#P pop;#P newobj 198 230 74 196620 p send2TM;#B color 6;#P window setfont "Sans Serif" 9.;#P message 430 246 102 196617 ?get /plan.1/source;#P message 385 157 100 196617 ?namespace /plan.1;#P message 417 230 129 196617 ?get /mov.1/dim/x:value;#P window setfont "Sans Serif" 10.;#P newex 25 159 52 196618 r minuit;#B color 12;#P window setfont "Sans Serif" 9.;#P newex 134 348 157 196617 print --minuit-daemon##SEND##;#B color 1;#P newex 98 159 175 196617 print --minuit-daemon##RECEIVE##;#B color 1;#P newex 10 133 91 196617 udpreceive 9998;#B color 5;#P newex 10 348 120 196617 udpsend 127.0.0.1 7002;#B color 5;#P window setfont "Sans Serif" 12.;#N vpatcher 690 151 1262 654;#P window setfont "Sans Serif" 9.;#P window linecount 0;#P newex 15 286 354 196617 t l l l l l;#P newex 15 311 44 196617 zl nth 5;#P newex 187 311 44 196617 zl nth 4;#P newex 101 311 44 196617 zl nth 3;#P newex 273 311 44 196617 zl nth 2;#P newex 359 311 44 196617 zl nth 1;#P newex 15 45 293 196617 t s s;#P window linecount 2;#P newex 298 126 44 196617 zl slice 1;#P window linecount 1;#P newex 298 103 73 196617 t l 1;#P window linecount 2;#P newex 298 68 119 196617 regexp (\\\\/) @substitute " ";#P outlet 15 472 15 0;#P inlet 15 27 15 0;#P window linecount 1;#P newex 433 164 120 196617 sprintf refer /%s/state;#N coll /mov.1/state;#P newobj 433 257 83 196617 coll;#B color 5;#N coll /mov.1/params;#P newobj 15 257 53 196617 coll;#B color 5;#P newex 298 164 132 196617 sprintf refer /%s/params;#P newex 433 309 69 196617 route symbol;#P newex 433 338 72 196617 prepend value;#P newex 15 449 72 196617 prepend store;#P newex 359 338 68 196617 prepend type;#P window linecount 2;#P newex 273 338 74 196617 prepend default_value;#P window linecount 1;#P newex 101 390 73 196617 prepend range;#P newex 101 338 96 196617 pack 0 0;#P newex 15 338 85 196617 prepend dynamic;#P connect 12 0 17 0;#P connect 17 0 9 0;#P fasten 8 0 9 0 303 230 20 230;#P lcolor 8;#P connect 9 0 23 0;#P connect 23 0 22 0;#P connect 22 0 0 0;#P fasten 6 0 5 0 438 441 20 441;#P fasten 4 0 5 0 364 436 20 436;#P fasten 3 0 5 0 278 429 20 429;#P fasten 2 0 5 0 106 423 20 423;#P connect 0 0 5 0;#P connect 5 0 13 0;#P connect 23 1 20 0;#P connect 20 0 1 0;#P connect 1 0 2 0;#P connect 23 2 21 0;#P connect 21 0 1 1;#P connect 23 3 19 0;#P connect 19 0 3 0;#P fasten 17 1 14 0 303 65 303 65;#P connect 14 0 15 0;#P connect 15 0 16 0;#P connect 16 0 8 0;#P connect 23 4 18 0;#P connect 18 0 4 0;#P fasten 16 0 11 0 303 159 438 159;#P fasten 17 0 10 0 20 243 438 243;#P lcolor 15;#P connect 11 0 10 0;#P connect 10 0 7 0;#P connect 7 1 6 0;#P connect 7 0 6 0;#P pop;#P newobj 57 315 132 196620 p get_all_attributes;#B color 6;#N vpatcher 906 165 1274 582;#P origin -36 0;#P window setfont "Sans Serif" 9.;#P newex 174 301 40 196617 itoa;#P newex 133 280 51 196617 zl slice 1;#P newex 133 259 40 196617 atoi;#P newex 92 135 183 196617 t s s;#P newex 133 230 64 196617 sprintf /%s;#P newex 92 180 51 196617 zl slice 1;#P newex 92 160 142 196617 regexp (\\\\/) @substitute " ";#P newex 133 203 128 196617 regexp " " @substitute /;#P newex 174 331 45 196617 prepend;#P newex 265 301 62 196617 prepend set;#P newex 174 354 72 196617 prepend store;#P newex 92 112 69 196617 route symbol;#N coll /mov.1/params;#P newobj 12 92 254 196617 coll;#B color 5;#P newex 12 69 46 196617 t dump l;#P newex 12 47 130 196617 sprintf refer /%s/params;#P outlet 174 377 15 0;#P inlet 12 27 15 0;#P connect 0 0 2 0;#P connect 2 0 3 0;#P connect 3 0 4 0;#P connect 3 1 4 0;#P connect 4 1 5 0;#P connect 5 0 13 0;#P connect 13 0 10 0;#P connect 10 0 11 0;#P connect 11 1 9 0;#P connect 9 0 12 0;#P connect 9 3 12 0;#P connect 12 0 14 0;#P connect 14 0 15 0;#P connect 15 1 16 0;#P connect 16 0 8 0;#P fasten 7 0 8 0 270 324 179 324;#P lcolor 13;#P connect 8 0 6 0;#P fasten 4 3 1 0 260 374 179 374;#P lcolor 2;#P connect 6 0 1 0;#P connect 13 1 7 0;#P lcolor 13;#P pop;#P newobj 104 288 115 196620 p get_all_params;#B color 6;#N vpatcher 346 44 1142 728;#P origin 0 28;#P window setfont "Sans Serif" 9.;#P window linecount 0;#P message 255 623 33 196617 clear;#P window setfont "Sans Serif" 12.;#P window linecount 1;#P comment 454 416 80 196620 submodules;#P window setfont "Sans Serif" 9.;#P newex 543 464 20 196617 t b;#P newex 543 485 36 196617 zl reg;#P newex 543 506 173 196617 sprintf %s.%ld/%s;#P newex 543 322 62 196617 t s s s;#P newex 543 441 47 196617 zl iter 1;#P newex 543 416 69 196617 route symbol;#P button 504 69 15 0;#P button 548 69 15 0;#P newex 612 127 142 196617 sprintf refer %s_submodules;#N coll m_submodules;#P newobj 543 394 53 196617 coll;#B color 5;#P button 47 28 15 0;#P window setfont "Sans Serif" 10.;#P comment 548 182 52 196618 x_config;#P outlet 135 639 15 0;#P inlet 83 8 15 0;#P window setfont "Sans Serif" 9.;#P newex 135 593 45 196617 prepend;#P newex 135 547 30 196617 t s s;#P newex 155 570 62 196617 prepend set;#P newex 135 616 72 196617 prepend store;#P newex 535 95 27 196617 t t t;#P newex 491 95 36 196617 t m m;#P newex 491 46 98 196617 sel movie tape;#P window setfont "Sans Serif" 12.;#P window linecount 2;#P comment 597 242 87 196620 numérote les instances;#P window setfont "Sans Serif" 9.;#P window linecount 1;#P newex 491 127 118 196617 sprintf refer %s_config;#P newex 543 277 172 196617 t b i;#P newex 595 344 78 196617 sprintf %s.%ld;#P newex 543 299 51 196617 zl reg;#P newex 513 255 40 196617 uzi;#P newex 513 235 18 196617 t i;#P newex 491 215 32 196617 sel 0;#P newex 542 200 69 196617 route symbol;#P window setfont "Sans Serif" 10.;#P window linecount 2;#P comment 374 210 117 196618 verifie s'il le nombre d'instance n'est pas 0;#P window setfont "Sans Serif" 9.;#P window linecount 1;#P newex 491 149 46 196617 t dump l;#N coll m_config;#T flags 1 0;#T store mov 2;#T store cam 1;#T store pict 1;#T store noiz 1;#T store grid 1;#T store boids 0;#T store nurbs 1;#T store plane 2;#T store mesh 0;#T store render 1;#T store jblur 0;#T store jbrcosa 1;#T store jframediff 0;#T store jrota 0;#T store jslide 1;#T store jwake 1;#T store brcosa 1;#T store blur 1;#T store buf 1;#T store chromakey 0;#T store composite 1;#T store crop 1;#T store dilate 1;#T store emboss 1;#T store gaussian 1;#T store keystone 1;#T store lumadisplace 1;#T store mix 0;#T store outline 1;#T store radial 1;#T store rota 1;#T store sharpen 1;#T store thresh 1;#T store wobble 1;#P newobj 491 175 53 196617 coll;#B color 5;#P newex 261 340 31 196617 t s 0;#P newex 142 342 31 196617 t s 1;#P newex 116 417 29 196617 gate;#P window setfont "Sans Serif" 12.;#P window linecount 2;#P comment 43 461 87 196620 numérote les instances;#P window setfont "Sans Serif" 9.;#P window linecount 1;#P newex 105 129 27 196617 t i b;#P newex 122 153 38 196617 zl reg;#P newex 83 107 32 196617 sel 0;#P newex 122 196 30 196617 t s s;#P newex 189 293 21 196617 t 1;#P newex 142 293 21 196617 t 2;#P newex 142 319 129 196617 gate 2;#P newex 142 272 57 196617 sel plugins;#P newex 142 250 51 196617 zl slice 1;#N coll tm_modules 1;#P newobj 142 228 92 196617 coll tm_modules 1;#B color 5;#P newex 135 389 78 196617 t b i;#P newex 135 466 78 196617 sprintf %s.%ld;#P newex 135 442 51 196617 zl reg;#P newex 105 366 40 196617 uzi;#P newex 133 74 69 196617 route symbol;#P newex 83 28 351 196617 t dump clear;#N coll tm_config 1;#T flags 1 0;#T store mapper 4;#T store oscsend 2;#T store oscreceive 2;#T store sensors 0;#T store ct 0;#T store lsub 0;#T store midi 1;#T store pcr 0;#T store pcrm 0;#T store pg 0;#T store enttec 0;#T store kroonde 0;#T store iz 0;#T store lanbox 0;#T store mouse 1;#T store spacen 0;#T store kaoss 0;#T store wii 0;#T store random 2;#T store lfo 2;#T store cue-list 1;#T store tape 0;#T store movie 1;#T store light 0;#P newobj 83 49 161 196617 coll tm_config 1;#B color 5;#P window setfont "Sans Serif" 12.;#P window linecount 3;#P comment 207 250 174 196620 les plugins ne peuvent avoir qu'une instance et ne sont donc pas numérotés;#P window setfont "Sans Serif" 10.;#P window linecount 2;#P comment 163 153 117 196618 verifie s'il le nombre d'instance n'est pas 0;#P connect 45 0 3 0;#P connect 42 0 3 0;#P connect 3 0 2 0;#P connect 2 0 16 0;#P connect 16 1 18 0;#P connect 18 0 5 0;#P connect 22 1 20 0;#P connect 21 1 20 0;#P connect 18 1 17 0;#P connect 17 0 15 0;#P connect 2 1 4 0;#P connect 5 2 8 0;#P connect 8 0 20 1;#P connect 20 0 6 0;#P connect 6 0 7 0;#P fasten 53 0 40 0 548 544 140 544;#P lcolor 2;#P connect 31 0 40 0;#P connect 7 0 40 0;#P connect 39 0 41 0;#P connect 40 0 41 0;#P connect 41 0 38 0;#P connect 38 0 43 0;#P connect 3 1 43 0;#P connect 57 0 43 0;#P connect 15 1 9 0;#P connect 9 0 10 0;#P connect 10 0 11 0;#P connect 11 0 13 0;#P connect 13 0 12 0;#P fasten 14 0 12 0 194 314 147 314;#P connect 12 0 21 0;#P connect 4 0 17 1;#P connect 40 1 39 0;#P connect 21 0 6 1;#P connect 11 1 14 0;#P connect 8 1 7 1;#P fasten 15 0 12 1 127 220 266 220;#P lcolor 2;#P connect 12 1 22 0;#P connect 22 0 35 0;#P connect 35 0 36 0;#P connect 49 0 36 0;#P connect 37 0 33 0;#P connect 36 0 33 0;#P connect 33 0 24 0;#P fasten 24 0 23 0 496 172 496 172;#P fasten 24 1 23 0 532 172 496 172;#P connect 23 0 27 0;#P connect 27 1 28 0;#P connect 28 0 29 0;#P connect 35 1 37 0;#P connect 48 0 37 0;#P connect 23 1 26 0;#P connect 29 2 32 0;#P connect 32 0 30 0;#P connect 30 0 52 0;#P connect 47 0 46 0;#P connect 52 0 46 0;#P connect 46 0 50 0;#P connect 50 0 51 0;#P connect 50 1 51 0;#P connect 51 0 55 0;#P connect 55 0 54 0;#P connect 54 0 53 0;#P connect 52 1 54 1;#P connect 26 0 30 1;#P connect 52 2 31 0;#P connect 37 1 47 0;#P connect 36 1 47 0;#P connect 32 1 53 1;#P connect 32 1 31 1;#P fasten 51 0 53 2 548 461 656 461;#P pop;#P newobj 151 258 166 196620 p get_all_modules_names;#B color 6;#P window setfont "Sans Serif" 20.;#P newex 10 193 201 196628 OSC2minuit;#B color 6;#P window setfont "Sans Serif" 10.;#P newex 336 266 51 196618 s minuit;#B color 12;#P window setfont "Sans Serif" 9.;#P message 371 141 115 196617 ?get /mov.1/sw:range;#P message 359 122 120 196617 ?namespace /mov.1/sw;#P message 346 105 101 196617 ?namespace /mov.1;#P message 336 87 73 196617 ?namespace /;#P message 409 213 135 196617 ?namespace /mov.1/dim/y;#P message 398 195 125 196617 ?namespace /mov.1/loop;#P message 388 175 101 196617 ?namespace /mov.1;#P window setfont "Sans Serif" 18.;#P user ubumenu 4 30 120 196626 0 1 1 0;#X add init;#X add cue1;#X add cue2;#X add cue3;#X prefix_set 0 0 <none> 0;#P window setfont "Sans Serif" 9.;#P newex 0 115 120 196617 udpsend 127.0.0.1 7002;#B color 5;#P window setfont "Sans Serif" 14.;#P message 64 64 24 196622 fin;#P message 0 64 51 196622 debut;#P user textedit 128 22 342 57 32896 3 14;#P window setfont "Sans Serif" 12.;#N vpatcher 30 89 291 287;#P button 146 58 15 0;#P window setfont "Sans Serif" 9.;#P newex 172 69 51 196617 tosymbol;#P newex 172 48 56 196617 route text;#P button 11 58 15 0;#P newex 146 101 36 196617 zl reg;#P newex 146 127 85 196617 sprintf /%s/end;#P newex 11 127 93 196617 sprintf /%s/start;#P newex 11 101 36 196617 zl reg;#P inlet 146 27 15 0;#P inlet 172 27 15 0;#P inlet 11 27 15 0;#P outlet 11 162 15 0;#P connect 1 0 8 0;#P connect 8 0 4 0;#P connect 4 0 5 0;#P fasten 6 0 0 0 151 153 16 153;#P connect 5 0 0 0;#P fasten 10 0 4 1 177 93 42 93;#P lcolor 2;#P connect 3 0 11 0;#P connect 11 0 7 0;#P connect 7 0 6 0;#P connect 2 0 9 0;#P connect 9 0 10 0;#P fasten 9 1 10 0 223 67 177 67;#P connect 10 0 7 1;#P pop;#P newobj 0 89 138 196620 p send cue;#B color 6;#P connect 2 0 0 0;#P connect 0 0 4 0;#P connect 19 0 14 0;#P connect 22 0 14 0;#P connect 14 0 18 0;#P connect 14 1 17 0;#P connect 3 0 0 1;#P fasten 17 0 14 1 62 340 327 340 327 179 78 179;#P fasten 19 0 20 0 15 154 103 154;#P connect 14 2 16 0;#P fasten 5 1 0 2 64 60 133 60;#P connect 1 0 0 2;#P fasten 14 0 21 0 15 344 139 344;#P fasten 16 0 14 2 109 311 322 311 322 183 141 183;#P connect 14 3 15 0;#P connect 14 4 26 0;#P fasten 15 0 14 3 156 283 319 283 319 187 204 187;#P fasten 25 0 13 0 435 263 341 263;#P fasten 24 0 13 0 390 219 341 219;#P fasten 23 0 13 0 422 255 341 255;#P fasten 6 0 13 0 393 228 341 228;#P fasten 8 0 13 0 414 247 341 247;#P fasten 7 0 13 0 403 238 341 238;#P fasten 9 0 13 0 341 184 341 184;#P fasten 10 0 13 0 351 193 341 193;#P fasten 11 0 13 0 364 201 341 201;#P fasten 12 0 13 0 376 211 341 211;#P pop;