#N canvas 554 143 661 311 10;
#X obj 303 148 symbol;
#X msg 327 37 Pause;
#X obj 303 288 s GLOBAL-MINUIT-TRANSPORT;
#X obj 22 82 list split 2;
#X obj 22 16 inlet;
#X obj 201 203 makefilename /%s;
#X obj 201 181 l2s /;
#X obj 22 115 list trim;
#X obj 22 146 route Speed StartPoint;
#X obj 303 168 makefilename /Main:%s;
#X msg 281 37 Start;
#X msg 403 37 Resume;
#X msg 372 37 End;
#X floatatom 553 39 5 0 0 0 - - -, f 5;
#X floatatom 453 39 5 0 0 0 - - -, f 5;
#X obj 22 241 prepend /Main:speed;
#X obj 86 203 prepend /Main:Goto;
#X msg 553 56 /Main:Goto \$1;
#X obj 489 150 t a;
#X msg 453 56 /Main:speed \$1;
#X connect 0 0 9 0;
#X connect 1 0 0 0;
#X connect 3 0 7 0;
#X connect 3 2 0 0;
#X connect 4 0 3 0;
#X connect 5 0 2 0;
#X connect 6 0 5 0;
#X connect 7 0 8 0;
#X connect 8 0 15 0;
#X connect 8 1 16 0;
#X connect 8 2 6 0;
#X connect 9 0 2 0;
#X connect 10 0 0 0;
#X connect 11 0 0 0;
#X connect 12 0 0 0;
#X connect 13 0 17 0;
#X connect 14 0 19 0;
#X connect 15 0 2 0;
#X connect 16 0 2 0;
#X connect 17 0 18 0;
#X connect 18 0 2 0;
#X connect 19 0 18 0;
