#N canvas 724 152 643 488 10;
#X obj 417 25 cnv 15 100 60 empty empty empty 20 12 0 14 -262130 -66577
0;
#X obj 425 63 minuit.device;
#X text 425 27 communication;
#X text 430 43 avec Virage;
#X obj 16 340 cnv 15 320 110 empty empty empty 20 12 0 14 -204800 -66577
0;
#X floatatom 21 350 5 0 0 0 - - -;
#X floatatom 99 427 5 0 0 0 - - -;
#X floatatom 21 371 5 0 0 0 - - -;
#X floatatom 99 405 5 0 0 0 - - -;
#X obj 11 24 cnv 15 350 270 empty empty empty 20 12 0 14 -204800 -66577
0;
#X text 91 3 objets contrôlés par Virage:;
#X text 85 322 organisés avec une arborescence:;
#X obj 371 160 cnv 15 255 310 empty empty empty 20 12 0 14 -204786
-66577 0;
#X text 500 211 contrôle des objets;
#X text 523 239 DANS Virage:;
#X obj 57 349 minuit.num /groupe1/controle1 11;
#X obj 57 370 minuit.num /groupe1/controle2 12;
#X obj 134 404 minuit.num /groupe2/controle1 21;
#X obj 134 426 minuit.num /groupe2/controle2 22;
#X msg 131 53 edit;
#X obj 108 104 print NUM;
#X obj 21 33 vsl 15 128 0 127 0 0 empty empty empty 0 -9 0 10 -262144
-1 -1 12300 1;
#X text 211 63 valeur initiale;
#X obj 108 80 minuit.num myNum 123;
#X obj 108 32 bng 15 250 50 0 empty empty empty 17 7 0 10 -262144 -1
-1;
#X obj 157 195 print SYM;
#X msg 188 143 edit;
#X obj 157 171 minuit.sym mySym valeur_initiale;
#X symbolatom 73 172 10 0 0 0 - - -;
#X obj 157 131 bng 15 250 50 0 empty empty empty 17 7 0 10 -262144
-1 -1;
#X obj 50 269 print ANY;
#X msg 88 222 edit;
#X obj 19 248 tgl 15 0 empty empty empty 17 7 0 10 -262144 -1 -1 0
1;
#X obj 50 212 bng 15 250 50 0 empty empty empty 17 7 0 10 -262144 -1
-1;
#X obj 50 247 minuit.any myAny2 1;
#X msg 469 404 Play;
#X msg 503 404 Pause;
#X msg 542 404 Stop;
#X msg 587 404 Next;
#X msg 415 404 Rewind;
#X msg 378 204 Speed \$1;
#X floatatom 378 183 5 0 0 0 - - -;
#X text 510 224 et du transport;
#X obj 381 164 hsl 120 15 0 5 0 0 empty empty empty -2 -8 0 10 -262144
-1 -1 0 1;
#X floatatom 391 239 5 0 0 0 - - -;
#X msg 391 260 StartPoint \$1;
#X text 428 238 ms;
#X msg 418 298 object.0 start;
#X msg 430 322 object.2 start;
#X msg 431 342 object.2 end;
#X obj 378 450 virage.transport;
#X connect 5 0 15 0;
#X connect 6 0 18 0;
#X connect 7 0 16 0;
#X connect 8 0 17 0;
#X connect 15 0 5 0;
#X connect 16 0 7 0;
#X connect 17 0 8 0;
#X connect 18 0 6 0;
#X connect 19 0 23 0;
#X connect 21 0 23 0;
#X connect 23 0 20 0;
#X connect 23 0 21 0;
#X connect 24 0 23 0;
#X connect 26 0 27 0;
#X connect 27 0 25 0;
#X connect 27 0 28 0;
#X connect 28 0 27 0;
#X connect 29 0 27 0;
#X connect 31 0 34 0;
#X connect 32 0 34 0;
#X connect 33 0 34 0;
#X connect 34 0 30 0;
#X connect 34 0 32 0;
#X connect 35 0 50 0;
#X connect 36 0 50 0;
#X connect 37 0 50 0;
#X connect 38 0 50 0;
#X connect 39 0 50 0;
#X connect 40 0 50 0;
#X connect 41 0 40 0;
#X connect 43 0 41 0;
#X connect 44 0 45 0;
#X connect 45 0 50 0;
#X connect 47 0 50 0;
#X connect 48 0 50 0;
#X connect 49 0 50 0;
