#N canvas 892 124 450 300 10;
#X obj 18 104 print rcvOSC;
#X obj 45 78 s rcvOSC;
#X msg 151 115 disconnect;
#X text 115 138 ========================================;
#X obj 148 221 sendOSC;
#X msg 133 89 connect localhost 7002;
#X floatatom 133 270 5 0 0 0 - - -;
#X floatatom 187 272 5 0 0 0 - - -;
#X text 236 275 bundleDepth;
#X msg 229 168 send /test1 1 2 3 4;
#X obj 17 54 dumpOSC 9998;
#X obj 27 173 realtime;
#X obj 27 201 print realtime;
#X obj 36 126 bng 15 250 50 0 empty empty empty 17 7 0 10 -262144 -1
-1;
#X obj 14 149 bng 15 250 50 0 empty empty empty 17 7 0 10 -262144 -1
-1;
#X connect 2 0 4 0;
#X connect 4 0 6 0;
#X connect 4 1 7 0;
#X connect 5 0 4 0;
#X connect 9 0 4 0;
#X connect 10 0 0 0;
#X connect 10 0 1 0;
#X connect 10 0 13 0;
#X connect 11 0 12 0;
#X connect 13 0 11 1;
#X connect 13 0 14 0;
#X connect 14 0 11 0;
